# xmcd
#
# Track frame offsets:
#       150
#       15176
#       30335
#       45968
#       62830
#       78196
#       95611
#       110350
#       126616
#       144618
#       158031
#       174164
#
# Disc length: 2548 seconds
#
# Revision: 0
# Processed by: cddbd v1.5.2PL0 Copyright (c) Steve Scherf et al.
# Submitted via: WaveLab 4.01
#
DISCID=8909f20c
DTITLE=Pedro Callado - Hum-Hum
DYEAR=2009
DGENRE=Pop
TTITLE0=Carimbozinho
TTITLE1=De Banjo na mão
TTITLE2=Encantaria
TTITLE3=Lapidar
TTITLE4=Ponto de Mariana
TTITLE5=Hum-Hum
TTITLE6=Paramanari
TTITLE7=Ânsia
TTITLE8=Marmota (De Abaeté pra Gurupá)
TTITLE9=Ilha do Marajó
TTITLE10=Virava o Zolho
TTITLE11=Tempo da Lata 
EXTD=
EXTT0=
EXTT1=
EXTT2=
EXTT3=
EXTT4=
EXTT5=
EXTT6=
EXTT7=
EXTT8=
EXTT9=
EXTT10=
EXTT11=
PLAYORDER=
